<svg width="53" height="53" viewBox="0 0 53 53" fill="none" xmlns="http://www.w3.org/2000/svg">
<path d="M26.4111 0.488037C27.5627 0.457752 28.5119 0.560461 29.415 0.8396C30.3175 1.11857 31.1623 1.56963 32.1084 2.22046C33.725 3.33263 34.7817 4.64221 35.4316 6.1687C36.0797 7.69103 36.3174 9.4166 36.3174 11.3542C36.3174 12.1322 36.2933 12.8298 36.25 13.4705C37.3241 12.5114 38.4142 11.7381 39.5938 11.2283C41.1012 10.5767 42.7417 10.3585 44.6572 10.7058C45.6986 10.8946 46.538 11.1439 47.3115 11.5359C48.0853 11.9281 48.7822 12.4577 49.5459 13.1921C50.3762 13.9906 50.9697 14.738 51.4053 15.5769C51.8406 16.4154 52.1133 17.3339 52.3145 18.4646C52.658 20.3965 52.4672 22.0686 51.8369 23.6033C51.2083 25.1336 50.1468 26.5141 48.7676 27.8748C45.9356 30.6685 44.1913 31.5794 41.416 32.8367C41.4943 32.8787 41.5745 32.9197 41.6543 32.9636C43.331 33.8863 44.7475 34.8821 45.7979 36.1365C46.8522 37.3956 47.5299 38.9055 47.7432 40.8406C47.8591 41.8925 47.8593 42.7686 47.7041 43.6218C47.5488 44.4752 47.24 45.2939 46.7539 46.2351C46.2253 47.2585 45.6779 48.0403 44.998 48.697C44.3185 49.3533 43.5157 49.8762 42.4893 50.3914C40.7356 51.2715 39.0793 51.5656 37.4287 51.3992C35.7825 51.2331 34.1557 50.6097 32.458 49.6755C28.844 47.6868 27.5026 46.2429 25.3809 43.7859C24.814 44.9776 24.0797 46.2117 22.8613 47.7068C21.6523 49.1903 20.4178 50.4049 18.9951 51.2126C17.567 52.0234 15.9603 52.4181 14.0186 52.28C12.9629 52.205 12.1014 52.048 11.29 51.7419C10.4784 51.4358 9.72827 50.9851 8.88965 50.3376C7.97781 49.6337 7.30702 48.9547 6.7832 48.1677C6.25979 47.3814 5.88967 46.4984 5.56738 45.3962C5.0167 43.5128 5.0249 41.83 5.48535 40.2361C5.94459 38.6467 6.85031 37.159 8.07422 35.657C9.76144 33.5866 11.0533 32.4127 12.5137 31.3953C10.4255 30.8291 8.61427 30.3139 5.96582 28.5828C4.3639 27.5356 3.02646 26.4356 2.07422 25.1052C1.11844 23.7698 0.558145 22.2129 0.492188 20.2673C0.456356 19.2096 0.52175 18.3358 0.741211 17.4968C0.960775 16.6577 1.33062 15.8644 1.88672 14.9626C2.49143 13.9821 3.09736 13.2447 3.8252 12.6414C4.55247 12.0385 5.39172 11.5782 6.4541 11.1423C8.26955 10.3976 9.94381 10.2291 11.5771 10.5203C13.206 10.8107 14.7804 11.5559 16.4023 12.616C16.7274 12.8284 17.0313 13.0367 17.3193 13.238C17.2713 12.6633 17.2422 12.0411 17.2422 11.3542C17.2422 9.44038 17.4318 7.71911 18.0244 6.19409C18.6193 4.66334 19.6155 3.34212 21.208 2.22241C22.0738 1.61371 22.8407 1.19111 23.6631 0.915771C24.4857 0.640402 25.352 0.515912 26.4111 0.488037Z" fill="#FF6A00"/>
<path d="M26.4111 0.488037L26.3984 0.00527704L26.3984 0.00527731L26.4111 0.488037ZM29.415 0.8396L29.5577 0.378214L29.5576 0.378206L29.415 0.8396ZM32.1084 2.22046L32.3821 1.82259L32.3821 1.82258L32.1084 2.22046ZM35.4316 6.1687L35.876 5.97954L35.876 5.97952L35.4316 6.1687ZM36.3174 11.3542L36.8003 11.3543V11.3542H36.3174ZM36.25 13.4705L35.7682 13.4379L35.6884 14.6194L36.5717 13.8307L36.25 13.4705ZM39.5938 11.2283L39.4022 10.785L39.4021 10.785L39.5938 11.2283ZM44.6572 10.7058L44.7434 10.2306L44.7434 10.2306L44.6572 10.7058ZM47.3115 11.5359L47.5299 11.1051L47.5298 11.1051L47.3115 11.5359ZM49.5459 13.1921L49.8806 12.8441V12.8441L49.5459 13.1921ZM51.4053 15.5769L51.8339 15.3544L51.8339 15.3544L51.4053 15.5769ZM52.3145 18.4646L52.7899 18.38L52.7899 18.38L52.3145 18.4646ZM51.8369 23.6033L52.2836 23.7868L52.2836 23.7867L51.8369 23.6033ZM48.7676 27.8748L49.1067 28.2185L49.1067 28.2185L48.7676 27.8748ZM41.416 32.8367L41.2167 32.3968L40.3267 32.8L41.1876 33.2621L41.416 32.8367ZM41.6543 32.9636L41.8871 32.5405L41.8871 32.5405L41.6543 32.9636ZM45.7979 36.1365L46.1681 35.8264L46.1681 35.8264L45.7979 36.1365ZM47.7432 40.8406L48.2232 40.7877V40.7877L47.7432 40.8406ZM47.7041 43.6218L48.1792 43.7083L48.1792 43.7083L47.7041 43.6218ZM46.7539 46.2351L47.183 46.4567H47.183L46.7539 46.2351ZM44.998 48.697L45.3335 49.0444L45.3336 49.0444L44.998 48.697ZM42.4893 50.3914L42.7059 50.823L42.7059 50.823L42.4893 50.3914ZM37.4287 51.3992L37.3802 51.8797L37.3803 51.8797L37.4287 51.3992ZM32.458 49.6755L32.2252 50.0986L32.2252 50.0986L32.458 49.6755ZM25.3809 43.7859L25.7464 43.4703L25.2626 42.9101L24.9447 43.5785L25.3809 43.7859ZM22.8613 47.7068L23.2357 48.0119L23.2357 48.0119L22.8613 47.7068ZM18.9951 51.2126L19.2335 51.6326L19.2336 51.6326L18.9951 51.2126ZM14.0186 52.28L13.9843 52.7617H13.9843L14.0186 52.28ZM11.29 51.7419L11.1196 52.1938L11.1196 52.1938L11.29 51.7419ZM8.88965 50.3376L8.59453 50.7199H8.59453L8.88965 50.3376ZM6.7832 48.1677L6.38119 48.4353L6.38119 48.4353L6.7832 48.1677ZM5.56738 45.3962L5.10386 45.5318L5.10387 45.5318L5.56738 45.3962ZM5.48535 40.2361L5.0214 40.102L5.0214 40.1021L5.48535 40.2361ZM8.07422 35.657L7.69986 35.3519L7.69985 35.3519L8.07422 35.657ZM12.5137 31.3953L12.7897 31.7915L13.6388 31.2L12.6401 30.9292L12.5137 31.3953ZM5.96582 28.5828L5.70159 28.987L5.7016 28.987L5.96582 28.5828ZM2.07422 25.1052L1.68151 25.3863L1.68152 25.3863L2.07422 25.1052ZM0.492188 20.2673L0.00953734 20.2837L0.00953779 20.2837L0.492188 20.2673ZM0.741211 17.4968L0.274012 17.3746L0.274003 17.3746L0.741211 17.4968ZM1.88672 14.9626L1.47568 14.7091L1.47567 14.7091L1.88672 14.9626ZM3.8252 12.6414L3.51701 12.2695L3.51701 12.2696L3.8252 12.6414ZM6.4541 11.1423L6.27082 10.6955L6.2708 10.6955L6.4541 11.1423ZM11.5771 10.5203L11.6619 10.0448L11.6619 10.0448L11.5771 10.5203ZM16.4023 12.616L16.6666 12.2117L16.6666 12.2117L16.4023 12.616ZM17.3193 13.238L17.0427 13.6339L17.8863 14.2234L17.8006 13.1978L17.3193 13.238ZM17.2422 11.3542L16.7593 11.3542V11.3543L17.2422 11.3542ZM18.0244 6.19409L17.5743 6.01916L17.5743 6.01917L18.0244 6.19409ZM21.208 2.22241L20.9303 1.82735L20.9302 1.82736L21.208 2.22241ZM23.6631 0.915771L23.5098 0.457824L23.5098 0.457832L23.6631 0.915771ZM26.4111 0.488037L26.4238 0.970797C27.5383 0.941486 28.4325 1.04139 29.2724 1.30099L29.415 0.8396L29.5576 0.378206C28.5912 0.0795278 27.587 -0.0259821 26.3984 0.00527704L26.4111 0.488037ZM29.415 0.8396L29.2724 1.30099C30.1132 1.56087 30.9133 1.98452 31.8347 2.61834L32.1084 2.22046L32.3821 1.82258C31.4113 1.15474 30.5219 0.676276 29.5577 0.378214L29.415 0.8396ZM32.1084 2.22046L31.8347 2.61833C33.3809 3.68209 34.3757 4.92132 34.9873 6.35788L35.4316 6.1687L35.876 5.97952C35.1878 4.36309 34.0691 2.98317 32.3821 1.82259L32.1084 2.22046ZM35.4316 6.1687L34.9873 6.35786C35.6006 7.79852 35.8345 9.45268 35.8345 11.3542H36.3174H36.8003C36.8003 9.38052 36.5588 7.58354 35.876 5.97954L35.4316 6.1687ZM36.3174 11.3542L35.8345 11.3542C35.8344 12.1221 35.8106 12.8089 35.7682 13.4379L36.25 13.4705L36.7318 13.503C36.7759 12.8508 36.8003 12.1423 36.8003 11.3543L36.3174 11.3542ZM36.25 13.4705L36.5717 13.8307C37.6224 12.8924 38.669 12.1541 39.7854 11.6716L39.5938 11.2283L39.4021 10.785C38.1594 11.3222 37.0258 12.1303 35.9283 13.1102L36.25 13.4705ZM39.5938 11.2283L39.7853 11.6716C41.2028 11.0589 42.7464 10.8502 44.5711 11.181L44.6572 10.7058L44.7434 10.2306C42.737 9.86685 40.9997 10.0945 39.4022 10.785L39.5938 11.2283ZM44.6572 10.7058L44.5711 11.181C45.5835 11.3646 46.3744 11.6024 47.0932 11.9667L47.3115 11.5359L47.5298 11.1051C46.7016 10.6854 45.8136 10.4247 44.7434 10.2306L44.6572 10.7058ZM47.3115 11.5359L47.0932 11.9666C47.8118 12.3309 48.4702 12.8277 49.2112 13.5402L49.5459 13.1921L49.8806 12.8441C49.0942 12.0878 48.3588 11.5253 47.5299 11.1051L47.3115 11.5359ZM49.5459 13.1921L49.2112 13.5402C50.0148 14.3131 50.5716 15.0193 50.9767 15.7994L51.4053 15.5769L51.8339 15.3544C51.3677 14.4566 50.7375 13.6681 49.8806 12.8441L49.5459 13.1921ZM51.4053 15.5769L50.9767 15.7994C51.3822 16.5806 51.6431 17.4482 51.839 18.5492L52.3145 18.4646L52.7899 18.38C52.5835 17.2196 52.2989 16.2501 51.8339 15.3544L51.4053 15.5769ZM52.3145 18.4646L51.839 18.5492C52.1676 20.3968 51.9833 21.9754 51.3902 23.4198L51.8369 23.6033L52.2836 23.7867C52.951 22.1617 53.1485 20.3961 52.7899 18.38L52.3145 18.4646ZM51.8369 23.6033L51.3902 23.4198C50.7954 24.868 49.7821 26.1955 48.4284 27.531L48.7676 27.8748L49.1067 28.2185C50.5116 26.8326 51.6213 25.3992 52.2836 23.7868L51.8369 23.6033ZM48.7676 27.8748L48.4284 27.531C45.6493 30.2726 43.9585 31.1547 41.2167 32.3968L41.416 32.8367L41.6153 33.2766C44.424 32.0041 46.2219 31.0645 49.1067 28.2185L48.7676 27.8748ZM41.416 32.8367L41.1876 33.2621C41.2803 33.3119 41.3415 33.3427 41.4215 33.3867L41.6543 32.9636L41.8871 32.5405C41.8074 32.4967 41.7084 32.4455 41.6445 32.4112L41.416 32.8367ZM41.6543 32.9636L41.4215 33.3867C43.0747 34.2964 44.4323 35.2579 45.4276 36.4465L45.7979 36.1365L46.1681 35.8264C45.0627 34.5063 43.5873 33.4761 41.8871 32.5405L41.6543 32.9636ZM45.7979 36.1365L45.4276 36.4465C46.4191 37.6306 47.06 39.0504 47.2631 40.8935L47.7432 40.8406L48.2232 40.7877C47.9998 38.7607 47.2853 37.1607 46.1681 35.8264L45.7979 36.1365ZM47.7432 40.8406L47.2631 40.8935C47.3758 41.9162 47.3732 42.7425 47.229 43.5354L47.7041 43.6218L48.1792 43.7083C48.3454 42.7947 48.3423 41.8689 48.2232 40.7877L47.7432 40.8406ZM47.7041 43.6218L47.229 43.5353C47.0847 44.3279 46.7965 45.1003 46.3248 46.0135L46.7539 46.2351L47.183 46.4567C47.6836 45.4874 48.0128 44.6224 48.1792 43.7083L47.7041 43.6218ZM46.7539 46.2351L46.3248 46.0135C45.8133 47.004 45.2948 47.7389 44.6625 48.3497L44.998 48.697L45.3336 49.0444C46.061 48.3417 46.6374 47.5131 47.183 46.4567L46.7539 46.2351ZM44.998 48.697L44.6626 48.3496C44.0295 48.961 43.2722 49.458 42.2726 49.9597L42.4893 50.3914L42.7059 50.823C43.7591 50.2943 44.6075 49.7456 45.3335 49.0444L44.998 48.697ZM42.4893 50.3914L42.2726 49.9597C40.5953 50.8015 39.0306 51.0753 37.4772 50.9187L37.4287 51.3992L37.3803 51.8797C39.1281 52.0559 40.8758 51.7414 42.7059 50.823L42.4893 50.3914ZM37.4287 51.3992L37.4772 50.9187C35.9192 50.7615 34.3568 50.1692 32.6908 49.2524L32.458 49.6755L32.2252 50.0986C33.9546 51.0503 35.6457 51.7047 37.3802 51.8797L37.4287 51.3992ZM32.458 49.6755L32.6908 49.2524C29.1456 47.3015 27.8475 45.9034 25.7464 43.4703L25.3809 43.7859L25.0154 44.1015C27.1578 46.5825 28.5424 48.072 32.2252 50.0986L32.458 49.6755ZM25.3809 43.7859L24.9447 43.5785C24.3943 44.7358 23.6805 45.937 22.487 47.4017L22.8613 47.7068L23.2357 48.0119C24.4788 46.4864 25.2338 45.2195 25.817 43.9933L25.3809 43.7859ZM22.8613 47.7068L22.487 47.4017C21.2949 48.8644 20.1048 50.0272 18.7567 50.7927L18.9951 51.2126L19.2336 51.6326C20.7309 50.7825 22.0098 49.5162 23.2357 48.0119L22.8613 47.7068ZM18.9951 51.2126L18.7567 50.7927C17.4138 51.555 15.9023 51.9298 14.0528 51.7983L14.0186 52.28L13.9843 52.7617C16.0182 52.9063 17.7202 52.4917 19.2335 51.6326L18.9951 51.2126ZM14.0186 52.28L14.0528 51.7983C13.0264 51.7253 12.2145 51.5745 11.4605 51.2901L11.29 51.7419L11.1196 52.1938C11.9884 52.5215 12.8993 52.6846 13.9843 52.7617L14.0186 52.28ZM11.29 51.7419L11.4605 51.2901C10.7066 51.0057 9.9983 50.5835 9.18477 49.9554L8.88965 50.3376L8.59453 50.7199C9.45824 51.3867 10.2502 51.8658 11.1196 52.1938L11.29 51.7419ZM8.88965 50.3376L9.18477 49.9554C8.30224 49.274 7.67235 48.632 7.18521 47.9001L6.7832 48.1677L6.38119 48.4353C6.94169 49.2774 7.65338 49.9933 8.59453 50.7199L8.88965 50.3376ZM6.7832 48.1677L7.18522 47.9001C6.69758 47.1675 6.34473 46.3339 6.0309 45.2607L5.56738 45.3962L5.10387 45.5318C5.43461 46.6629 5.82201 47.5952 6.38119 48.4353L6.7832 48.1677ZM5.56738 45.3962L6.0309 45.2607C5.5042 43.4593 5.51597 41.8701 5.94931 40.3701L5.48535 40.2361L5.0214 40.1021C4.53382 41.7899 4.52921 43.5663 5.10386 45.5318L5.56738 45.3962ZM5.48535 40.2361L5.9493 40.3701C6.3839 38.866 7.24747 37.4361 8.44859 35.962L8.07422 35.657L7.69985 35.3519C6.45315 36.8819 5.50528 38.4273 5.0214 40.102L5.48535 40.2361ZM8.07422 35.657L8.44858 35.9621C10.1122 33.9206 11.3719 32.7793 12.7897 31.7915L12.5137 31.3953L12.2376 30.999C10.7346 32.0461 9.41067 33.2526 7.69986 35.3519L8.07422 35.657ZM12.5137 31.3953L12.6401 30.9292C10.5701 30.3679 8.8158 29.8687 6.23004 28.1785L5.96582 28.5828L5.7016 28.987C8.41273 30.7591 10.2809 31.2902 12.3873 31.8614L12.5137 31.3953ZM5.96582 28.5828L6.23005 28.1785C4.65045 27.146 3.36918 26.0847 2.46692 24.8241L2.07422 25.1052L1.68152 25.3863C2.68373 26.7865 4.07735 27.9253 5.70159 28.987L5.96582 28.5828ZM2.07422 25.1052L2.46693 24.8242C1.56824 23.5685 1.03767 22.1042 0.974837 20.251L0.492188 20.2673L0.00953779 20.2837C0.0786234 22.3215 0.668648 23.9711 1.68151 25.3863L2.07422 25.1052ZM0.492188 20.2673L0.974838 20.251C0.939992 19.2223 1.00453 18.3985 1.20842 17.619L0.741211 17.4968L0.274003 17.3746C0.0389664 18.2732 -0.0272799 19.1968 0.00953734 20.2837L0.492188 20.2673ZM0.741211 17.4968L1.20841 17.6191C1.41235 16.8396 1.75829 16.0909 2.29776 15.2161L1.88672 14.9626L1.47567 14.7091C0.90295 15.6378 0.509196 16.4757 0.274012 17.3746L0.741211 17.4968ZM1.88672 14.9626L2.29776 15.2161C2.88282 14.2675 3.45628 13.5744 4.13338 13.0132L3.8252 12.6414L3.51701 12.2696C2.73845 12.9149 2.10004 13.6968 1.47568 14.7091L1.88672 14.9626ZM3.8252 12.6414L4.13338 13.0132C4.81094 12.4516 5.60288 12.0135 6.6374 11.5891L6.4541 11.1423L6.2708 10.6955C5.18057 11.1428 4.294 11.6255 3.51701 12.2695L3.8252 12.6414ZM6.4541 11.1423L6.63739 11.5891C8.3739 10.8768 9.95538 10.7217 11.4924 10.9957L11.5771 10.5203L11.6619 10.0448C9.93224 9.73654 8.16519 9.91842 6.27082 10.6955L6.4541 11.1423ZM11.5771 10.5203L11.4924 10.9957C13.0338 11.2705 14.5464 11.9798 16.1381 13.0202L16.4023 12.616L16.6666 12.2117C15.0145 11.1319 13.3781 10.3508 11.6619 10.0448L11.5771 10.5203ZM16.4023 12.616L16.1381 13.0202C16.4576 13.229 16.7571 13.4343 17.0427 13.6339L17.3193 13.238L17.5959 12.8422C17.3054 12.6392 16.9972 12.4279 16.6666 12.2117L16.4023 12.616ZM17.3193 13.238L17.8006 13.1978C17.7536 12.636 17.7251 12.0272 17.7251 11.3542L17.2422 11.3542L16.7593 11.3543C16.7593 12.0549 16.7889 12.6906 16.8381 13.2783L17.3193 13.238ZM17.2422 11.3542L17.7251 11.3543C17.7251 9.46719 17.913 7.81408 18.4746 6.36901L18.0244 6.19409L17.5743 6.01917C16.9506 7.62414 16.7593 9.41357 16.7593 11.3542L17.2422 11.3542ZM18.0244 6.19409L18.4745 6.36903C19.034 4.92959 19.9689 3.684 21.4858 2.61747L21.208 2.22241L20.9302 1.82736C19.2621 3.00025 18.2047 4.39709 17.5743 6.01916L18.0244 6.19409ZM21.208 2.22241L21.4858 2.61747C22.3275 2.02565 23.0523 1.62956 23.8164 1.37371L23.6631 0.915771L23.5098 0.457832C22.6292 0.752663 21.82 1.20178 20.9303 1.82735L21.208 2.22241ZM23.6631 0.915771L23.8164 1.37372C24.5805 1.11794 25.3964 0.997838 26.4238 0.970797L26.4111 0.488037L26.3984 0.00527731C25.3077 0.0339856 24.3909 0.162865 23.5098 0.457824L23.6631 0.915771Z" fill="#FF904B"/>
<circle cx="27.6244" cy="26.3193" r="6.76098" fill="#FF904B"/>
</svg>
