<svg width="36" height="36" viewBox="0 0 36 36" fill="none" xmlns="http://www.w3.org/2000/svg">
<path d="M28.199 4.7002H7.04963C5.7513 4.7002 4.69971 5.75179 4.69971 7.05012V28.1994C4.69971 29.4978 5.7513 30.5494 7.04963 30.5494H28.199C29.4973 30.5494 30.5489 29.4978 30.5489 28.1994V7.05012C30.5489 5.75179 29.4973 4.7002 28.199 4.7002ZM12.8704 25.8495H9.40426V14.6968H12.8704V25.8495ZM11.1021 13.1023C9.98469 13.1023 9.08114 12.1965 9.08114 11.0814C9.08114 9.96638 9.98586 9.06165 11.1021 9.06165C12.2159 9.06165 13.1218 9.96755 13.1218 11.0814C13.1218 12.1965 12.2159 13.1023 11.1021 13.1023ZM25.8537 25.8495H22.3899V20.4259C22.3899 19.1323 22.3664 17.4685 20.5887 17.4685C18.7852 17.4685 18.5079 18.8773 18.5079 20.3319V25.8495H15.0441V14.6968H18.3692V16.2207H18.4162C18.8792 15.3442 20.0095 14.4195 21.6955 14.4195C25.2051 14.4195 25.8537 16.7295 25.8537 19.7327V25.8495Z" fill="black"/>
</svg>
