<svg width="36" height="36" viewBox="0 0 36 36" fill="none" xmlns="http://www.w3.org/2000/svg">
<g clip-path="url(#clip0_3075_3086)">
<path d="M33.7488 7.75V25.25C33.7488 26.2446 33.3841 27.1984 32.7349 27.9017C32.0858 28.6049 31.2053 29 30.2872 29H7.21032C6.29226 29 5.4118 28.6049 4.76264 27.9017C4.11348 27.1984 3.74878 26.2446 3.74878 25.25V7.75M33.7488 7.75C33.7488 6.75544 33.3841 5.80161 32.7349 5.09835C32.0858 4.39509 31.2053 4 30.2872 4H7.21032C6.29226 4 5.4118 4.39509 4.76264 5.09835C4.11348 5.80161 3.74878 6.75544 3.74878 7.75M33.7488 7.75V8.155C33.7488 8.79524 33.5976 9.42484 33.3094 9.98383C33.0213 10.5428 32.6058 11.0126 32.1026 11.3483L20.5642 19.04C20.0183 19.4042 19.3898 19.5971 18.7488 19.5971C18.1077 19.5971 17.4792 19.4042 16.9334 19.04L5.39493 11.35C4.89173 11.0142 4.47627 10.5445 4.18812 9.98549C3.89996 9.42651 3.74871 8.79691 3.74878 8.15667V7.75" fill="black"/>
<path d="M33.7488 7.75V25.25C33.7488 26.2446 33.3841 27.1984 32.7349 27.9017C32.0858 28.6049 31.2053 29 30.2872 29H7.21032C6.29226 29 5.4118 28.6049 4.76264 27.9017C4.11348 27.1984 3.74878 26.2446 3.74878 25.25V7.75M33.7488 7.75C33.7488 6.75544 33.3841 5.80161 32.7349 5.09835C32.0858 4.39509 31.2053 4 30.2872 4H7.21032C6.29226 4 5.4118 4.39509 4.76264 5.09835C4.11348 5.80161 3.74878 6.75544 3.74878 7.75M33.7488 7.75V8.155C33.7488 8.79524 33.5976 9.42484 33.3094 9.98383C33.0213 10.5428 32.6058 11.0126 32.1026 11.3483L20.5642 19.04C20.0183 19.4042 19.3898 19.5971 18.7488 19.5971C18.1077 19.5971 17.4792 19.4042 16.9334 19.04L5.39493 11.35C4.89173 11.0142 4.47627 10.5445 4.18812 9.98549C3.89996 9.42651 3.74871 8.79691 3.74878 8.15667V7.75" stroke="white" stroke-width="2.20305" stroke-linecap="round" stroke-linejoin="round"/>
</g>
<defs>
<clipPath id="clip0_3075_3086">
<rect width="35.2489" height="35.2489" fill="white"/>
</clipPath>
</defs>
</svg>
