<svg width="342" height="51" viewBox="0 0 342 51" fill="none" xmlns="http://www.w3.org/2000/svg">
<path d="M-1.35422e-06 -2.39027e-05H5.32L34.44 42.28H34.58L34.58 -2.39027e-05L39.34 -2.39027e-05L39.34 49.98H34.02L4.9 7.69998H4.76L4.76 49.98H-1.35422e-06L-1.35422e-06 -2.39027e-05ZM77.9871 29.4C77.9404 27.72 77.6371 26.11 77.0771 24.57C76.5638 23.03 75.8171 21.6766 74.8371 20.51C73.8571 19.2966 72.6671 18.34 71.2671 17.64C69.8671 16.8933 68.2804 16.52 66.5071 16.52C64.6871 16.52 63.0771 16.8933 61.6771 17.64C60.2771 18.34 59.0871 19.2966 58.1071 20.51C57.1271 21.6766 56.3338 23.0533 55.7271 24.64C55.1671 26.18 54.7938 27.7666 54.6071 29.4H77.9871ZM54.6071 33.11C54.6071 34.6966 54.8171 36.3533 55.2371 38.08C55.7038 39.76 56.4271 41.2766 57.4071 42.63C58.3871 43.9833 59.6238 45.1033 61.1171 45.99C62.6104 46.8766 64.4071 47.32 66.5071 47.32C69.7271 47.32 72.2471 46.48 74.0671 44.8C75.8871 43.12 77.1471 40.88 77.8471 38.08L82.2571 38.08C81.3238 42.1866 79.5971 45.36 77.0771 47.6C74.6038 49.84 71.0804 50.96 66.5071 50.96C63.6604 50.96 61.1871 50.47 59.0871 49.49C57.0338 48.4633 55.3538 47.0866 54.0471 45.36C52.7404 43.5866 51.7604 41.5566 51.1071 39.27C50.5004 36.9366 50.1971 34.4866 50.1971 31.92C50.1971 29.54 50.5004 27.2066 51.1071 24.92C51.7604 22.6333 52.7404 20.6033 54.0471 18.83C55.3538 17.01 57.0338 15.5633 59.0871 14.49C61.1871 13.37 63.6604 12.81 66.5071 12.81C69.4004 12.81 71.8738 13.3933 73.9271 14.56C75.9804 15.7266 77.6371 17.2666 78.8971 19.18C80.2038 21.0466 81.1371 23.2166 81.6971 25.69C82.2571 28.1166 82.4904 30.59 82.3971 33.11L54.6071 33.11ZM91.8859 -2.39027e-05L96.2959 -2.39027e-05L96.2959 49.98H91.8859L91.8859 -2.39027e-05ZM108.306 -2.39027e-05H112.716L112.716 49.98H108.306L108.306 -2.39027e-05ZM124.236 24.92C124.376 22.82 124.819 21 125.566 19.46C126.312 17.92 127.316 16.66 128.576 15.68C129.882 14.7 131.399 13.9766 133.126 13.51C134.852 13.0433 136.766 12.81 138.866 12.81C140.452 12.81 142.039 12.9733 143.626 13.3C145.212 13.58 146.636 14.14 147.896 14.98C149.156 15.82 150.182 17.01 150.976 18.55C151.769 20.0433 152.166 22.0033 152.166 24.43V43.61C152.166 45.3833 153.029 46.27 154.756 46.27C155.269 46.27 155.736 46.1766 156.156 45.99V49.7C155.642 49.7933 155.176 49.8633 154.756 49.91C154.382 49.9566 153.892 49.98 153.286 49.98C152.166 49.98 151.256 49.84 150.556 49.56C149.902 49.2333 149.389 48.79 149.016 48.23C148.642 47.67 148.386 47.0166 148.246 46.27C148.152 45.4766 148.106 44.6133 148.106 43.68H147.966C147.172 44.8466 146.356 45.8966 145.516 46.83C144.722 47.7166 143.812 48.4633 142.786 49.07C141.806 49.6766 140.662 50.1433 139.356 50.47C138.096 50.7966 136.579 50.96 134.806 50.96C133.126 50.96 131.539 50.75 130.046 50.33C128.599 49.9566 127.316 49.35 126.196 48.51C125.122 47.6233 124.259 46.5266 123.606 45.22C122.999 43.8666 122.696 42.28 122.696 40.46C122.696 37.94 123.256 35.98 124.376 34.58C125.496 33.1333 126.966 32.0366 128.786 31.29C130.652 30.5433 132.729 30.03 135.016 29.75C137.349 29.4233 139.706 29.12 142.086 28.84C143.019 28.7466 143.836 28.63 144.536 28.49C145.236 28.35 145.819 28.1166 146.286 27.79C146.752 27.4166 147.102 26.9266 147.336 26.32C147.616 25.7133 147.756 24.92 147.756 23.94C147.756 22.4466 147.499 21.2333 146.986 20.3C146.519 19.32 145.842 18.55 144.956 17.99C144.116 17.43 143.112 17.0566 141.946 16.87C140.826 16.6366 139.612 16.52 138.306 16.52C135.506 16.52 133.219 17.1966 131.446 18.55C129.672 19.8566 128.739 21.98 128.646 24.92H124.236ZM147.756 30.24H147.616C147.336 30.7533 146.799 31.1266 146.006 31.36C145.212 31.5933 144.512 31.7566 143.906 31.85C142.039 32.1766 140.102 32.48 138.096 32.76C136.136 32.9933 134.339 33.3666 132.706 33.88C131.072 34.3933 129.719 35.14 128.646 36.12C127.619 37.0533 127.106 38.4066 127.106 40.18C127.106 41.3 127.316 42.3033 127.736 43.19C128.202 44.03 128.809 44.7766 129.556 45.43C130.302 46.0366 131.166 46.5033 132.146 46.83C133.126 47.1566 134.129 47.32 135.156 47.32C136.836 47.32 138.446 47.0633 139.986 46.55C141.526 46.0366 142.856 45.29 143.976 44.31C145.142 43.33 146.052 42.14 146.706 40.74C147.406 39.34 147.756 37.7533 147.756 35.98V30.24ZM165.575 -2.39027e-05L186.295 -2.39027e-05C190.121 -2.39027e-05 193.435 0.653309 196.235 1.95998C199.035 3.26664 201.321 5.06331 203.095 7.34998C204.868 9.58998 206.175 12.2266 207.015 15.26C207.901 18.2933 208.345 21.5366 208.345 24.99C208.345 28.4433 207.901 31.6866 207.015 34.72C206.175 37.7533 204.868 40.4133 203.095 42.7C201.321 44.94 199.035 46.7133 196.235 48.02C193.435 49.3266 190.121 49.98 186.295 49.98L165.575 49.98V-2.39027e-05ZM174.325 42.84H182.935C186.341 42.84 189.118 42.3966 191.265 41.51C193.458 40.5766 195.161 39.3166 196.375 37.73C197.635 36.0966 198.475 34.2066 198.895 32.06C199.361 29.8666 199.595 27.51 199.595 24.99C199.595 22.47 199.361 20.1366 198.895 17.99C198.475 15.7966 197.635 13.9066 196.375 12.32C195.161 10.6866 193.458 9.42664 191.265 8.53998C189.118 7.60664 186.341 7.13998 182.935 7.13998L174.325 7.13998V42.84ZM243.322 28.7C243.229 27.44 242.949 26.2266 242.482 25.06C242.062 23.8933 241.456 22.89 240.662 22.05C239.916 21.1633 238.982 20.4633 237.862 19.95C236.789 19.39 235.576 19.11 234.222 19.11C232.822 19.11 231.539 19.3666 230.372 19.88C229.252 20.3466 228.272 21.0233 227.432 21.91C226.639 22.75 225.986 23.7533 225.472 24.92C225.006 26.0866 224.749 27.3466 224.702 28.7H243.322ZM224.702 33.95C224.702 35.35 224.889 36.7033 225.262 38.01C225.682 39.3166 226.289 40.46 227.082 41.44C227.876 42.42 228.879 43.2133 230.092 43.82C231.306 44.38 232.752 44.66 234.432 44.66C236.766 44.66 238.632 44.17 240.032 43.19C241.479 42.1633 242.552 40.6466 243.252 38.64H250.812C250.392 40.6 249.669 42.35 248.642 43.89C247.616 45.43 246.379 46.7366 244.932 47.81C243.486 48.8366 241.852 49.6066 240.032 50.12C238.259 50.68 236.392 50.96 234.432 50.96C231.586 50.96 229.066 50.4933 226.872 49.56C224.679 48.6266 222.812 47.32 221.272 45.64C219.779 43.96 218.636 41.9533 217.842 39.62C217.096 37.2866 216.722 34.72 216.722 31.92C216.722 29.3533 217.119 26.9266 217.912 24.64C218.752 22.3066 219.919 20.2766 221.412 18.55C222.952 16.7766 224.796 15.3766 226.942 14.35C229.089 13.3233 231.516 12.81 234.222 12.81C237.069 12.81 239.612 13.4166 241.852 14.63C244.139 15.7966 246.029 17.36 247.522 19.32C249.016 21.28 250.089 23.5433 250.742 26.11C251.442 28.63 251.629 31.2433 251.302 33.95H224.702ZM260.869 13.79H268.359V20.79H268.499C268.732 19.81 269.175 18.8533 269.829 17.92C270.529 16.9866 271.345 16.1466 272.279 15.4C273.259 14.6066 274.332 13.9766 275.499 13.51C276.665 13.0433 277.855 12.81 279.069 12.81C280.002 12.81 280.632 12.8333 280.959 12.88C281.332 12.9266 281.705 12.9733 282.079 13.02V20.72C281.519 20.6266 280.935 20.5566 280.329 20.51C279.769 20.4166 279.209 20.37 278.649 20.37C277.295 20.37 276.012 20.65 274.799 21.21C273.632 21.7233 272.605 22.5166 271.719 23.59C270.832 24.6166 270.132 25.9 269.619 27.44C269.105 28.98 268.849 30.7533 268.849 32.76V49.98H260.869V13.79ZM288.978 13.79H296.538V18.83H296.748C297.355 17.9433 298.008 17.1266 298.708 16.38C299.408 15.6333 300.178 15.0033 301.018 14.49C301.905 13.9766 302.908 13.58 304.028 13.3C305.148 12.9733 306.431 12.81 307.878 12.81C310.071 12.81 312.101 13.3 313.968 14.28C315.881 15.26 317.235 16.7766 318.028 18.83C319.381 16.9633 320.945 15.4933 322.718 14.42C324.491 13.3466 326.708 12.81 329.368 12.81C333.195 12.81 336.158 13.7433 338.258 15.61C340.405 17.4766 341.478 20.6033 341.478 24.99V49.98H333.498V28.84C333.498 27.3933 333.451 26.0866 333.358 24.92C333.265 23.7066 332.985 22.68 332.518 21.84C332.098 20.9533 331.445 20.2766 330.558 19.81C329.671 19.3433 328.458 19.11 326.918 19.11C324.211 19.11 322.251 19.95 321.038 21.63C319.825 23.31 319.218 25.69 319.218 28.77V49.98H311.238V26.74C311.238 24.22 310.771 22.33 309.838 21.07C308.951 19.7633 307.295 19.11 304.868 19.11C303.841 19.11 302.838 19.32 301.858 19.74C300.925 20.16 300.085 20.7666 299.338 21.56C298.638 22.3533 298.055 23.3333 297.588 24.5C297.168 25.6666 296.958 26.9966 296.958 28.49V49.98H288.978V13.79Z" fill="#C0C0C0"/>
</svg>
